<?xml version="1.0" encoding="utf-8"?><!DOCTYPE svg PUBLIC "-//W3C//DTD SVG 1.1//EN" "http://www.w3.org/Graphics/SVG/1.1/DTD/svg11.dtd"><svg version="1.1" xmlns="http://www.w3.org/2000/svg" xmlns:xlink="http://www.w3.org/1999/xlink" x="0px" y="0px" viewBox="0 0 100 124.81" enable-background="new 0 0 100 99.848" xml:space="preserve"><g><path fill="#010101" d="M43.838,87.753c-3.078-0.521-5.968,1.539-6.492,4.599l-0.157,0.923c-0.524,3.065,1.535,5.97,4.595,6.494
		c0.321,0.053,0.64,0.079,0.955,0.079c2.69,0,5.07-1.938,5.538-4.675l0.157-0.927C48.959,91.182,46.901,88.281,43.838,87.753z"/><path fill="#010101" d="M14.818,76.822l-0.669,0.657c-2.219,2.173-2.255,5.735-0.083,7.953c1.103,1.125,2.562,1.69,4.02,1.69
		c1.421,0,2.839-0.536,3.935-1.607l0.669-0.654c2.219-2.177,2.256-5.735,0.083-7.956C20.598,74.684,17.036,74.648,14.818,76.822z"/><path fill="#010101" d="M5.731,51.005l-0.928,0.138c-3.075,0.454-5.195,3.314-4.742,6.388c0.413,2.793,2.816,4.803,5.556,4.803
		c0.275,0,0.552-0.021,0.832-0.062l0.927-0.137c3.075-0.453,5.195-3.316,4.742-6.384C11.665,52.672,8.792,50.555,5.731,51.005z"/><path fill="#010101" d="M7.509,34.316L8.34,34.75c0.833,0.435,1.725,0.641,2.603,0.641c2.026,0,3.985-1.1,4.991-3.021
		c1.436-2.752,0.373-6.149-2.382-7.589l-0.831-0.435c-2.755-1.439-6.151-0.375-7.592,2.379C3.691,29.479,4.754,32.877,7.509,34.316z
		"/><path fill="#010101" d="M25.211,13.159c0.98,1.979,2.974,3.127,5.042,3.127c0.839,0,1.692-0.188,2.495-0.586
		c2.783-1.38,3.918-4.755,2.541-7.537l-0.416-0.841c-1.378-2.783-4.752-3.917-7.539-2.541c-2.783,1.38-3.919,4.755-2.541,7.537
		L25.211,13.159z"/><path fill="#010101" d="M56.17,12.099c0.314,0.053,0.631,0.08,0.942,0.08c2.694,0,5.074-1.942,5.539-4.69l0.157-0.924
		c0.516-3.064-1.552-5.966-4.613-6.484c-3.067-0.522-5.963,1.548-6.481,4.611l-0.156,0.922C51.04,8.679,53.103,11.582,56.17,12.099z
		"/><path fill="#010101" d="M85.845,22.37c2.221-2.175,2.253-5.737,0.077-7.956c-2.174-2.219-5.738-2.252-7.953-0.077L77.3,14.995
		c-2.221,2.175-2.251,5.735-0.077,7.956c1.102,1.124,2.558,1.685,4.015,1.685c1.421,0,2.843-0.536,3.938-1.607L85.845,22.37z"/><path fill="#010101" d="M99.938,42.316c-0.456-3.075-3.328-5.195-6.39-4.742l-0.924,0.138c-3.076,0.455-5.196,3.314-4.743,6.387
		c0.411,2.793,2.815,4.802,5.555,4.802c0.278,0,0.554-0.019,0.832-0.061l0.927-0.138C98.271,48.249,100.395,45.392,99.938,42.316z"/><path fill="#010101" d="M92.492,65.532l-0.832-0.436c-2.754-1.438-6.15-0.373-7.592,2.381c-1.437,2.754-0.373,6.152,2.38,7.592
		l0.832,0.436c0.832,0.435,1.727,0.639,2.603,0.639c2.025,0,3.985-1.098,4.989-3.02C96.309,70.367,95.248,66.973,92.492,65.532z"/><path fill="#010101" d="M74.788,86.69c-1.379-2.78-4.755-3.917-7.538-2.537c-2.783,1.377-3.917,4.752-2.54,7.535l0.417,0.841
		c0.98,1.981,2.976,3.13,5.043,3.13c0.841,0,1.693-0.192,2.495-0.586c2.784-1.383,3.918-4.758,2.541-7.539L74.788,86.69z"/></g><path fill="#010101" d="M71.271,51.08c0.809,0.444,1.724,0.704,2.692,0.704c0.274,0,0.553-0.021,0.831-0.059l0.927-0.14
	c3.077-0.454,5.197-3.314,4.741-6.387c-0.45-3.073-3.325-5.189-6.387-4.742l-0.927,0.138c-1.505,0.222-2.78,1.029-3.637,2.148
	c-0.947-0.509-2.043-0.762-3.18-0.663c1.004-1.045,1.516-2.383,1.558-3.734c1.176-0.149,2.315-0.647,3.228-1.541l0.669-0.657
	c2.221-2.175,2.25-5.737,0.077-7.956c-2.177-2.219-5.738-2.252-7.953-0.077l-0.669,0.658c-1.084,1.063-1.641,2.458-1.676,3.867
	c-1.066,0.144-2.103,0.583-2.961,1.335c0.195-1.43-0.178-2.812-0.936-3.925c0.864-0.811,1.489-1.889,1.705-3.147l0.154-0.925
	c0.518-3.064-1.549-5.968-4.61-6.483c-3.089-0.52-5.965,1.549-6.483,4.61l-0.156,0.927c-0.253,1.495,0.12,2.951,0.914,4.111
	c-0.777,0.742-1.356,1.707-1.611,2.825c-0.683-1.275-1.797-2.175-3.066-2.629c0.221-1.164,0.099-2.401-0.468-3.543l-0.416-0.841
	c-1.38-2.782-4.754-3.917-7.537-2.542c-2.783,1.381-3.92,4.757-2.541,7.539l0.416,0.841c0.675,1.361,1.843,2.292,3.17,2.766
	c-0.203,1.066-0.11,2.197,0.345,3.261c-1.3-0.63-2.729-0.702-4.022-0.323C32.958,35.422,32.13,34.489,31,33.9l-0.831-0.435
	c-2.753-1.438-6.151-0.372-7.592,2.379c-1.438,2.754-0.375,6.151,2.38,7.59l0.831,0.434c0.833,0.435,1.725,0.641,2.602,0.641
	c0.543,0,1.078-0.09,1.594-0.245c0.463,0.97,1.204,1.821,2.185,2.409c-1.424,0.256-2.623,1.04-3.449,2.107
	c-1.04-0.57-2.255-0.836-3.513-0.653l-0.928,0.138c-3.074,0.455-5.195,3.314-4.742,6.388c0.413,2.796,2.816,4.806,5.556,4.806
	c0.275,0,0.552-0.023,0.832-0.064l0.927-0.137c1.5-0.219,2.766-1.021,3.623-2.132c0.807,0.438,1.72,0.699,2.679,0.699
	c0.166,0,0.336-0.024,0.503-0.039c-0.993,1.045-1.501,2.378-1.544,3.722c-1.178,0.148-2.32,0.646-3.233,1.543l-0.669,0.654
	c-2.219,2.177-2.252,5.738-0.077,7.959c1.102,1.125,2.558,1.685,4.014,1.685c1.421,0,2.844-0.536,3.938-1.607l0.669-0.657
	c1.084-1.061,1.638-2.458,1.676-3.861c1.068-0.142,2.103-0.586,2.966-1.338c-0.197,1.43,0.177,2.81,0.934,3.92
	c-0.863,0.812-1.493,1.892-1.704,3.153l-0.157,0.924c-0.517,3.064,1.548,5.966,4.611,6.481c0.317,0.054,0.632,0.08,0.941,0.08
	c2.696,0,5.078-1.942,5.542-4.69l0.153-0.924c0.255-1.501-0.118-2.961-0.919-4.124c0.777-0.74,1.366-1.7,1.621-2.819
	c0.684,1.273,1.803,2.149,3.07,2.611c-0.228,1.17-0.112,2.417,0.462,3.565l0.414,0.841c0.983,1.978,2.979,3.127,5.046,3.127
	c0.838,0,1.69-0.189,2.493-0.586c2.783-1.38,3.92-4.756,2.54-7.539l-0.414-0.841c-0.675-1.362-1.836-2.324-3.165-2.795
	c0.192-1.061,0.092-2.18-0.358-3.236c0.787,0.382,1.616,0.583,2.442,0.583c0.542,0,1.075-0.092,1.593-0.246
	c0.507,1.069,1.33,1.993,2.458,2.585l0.832,0.433c0.832,0.438,1.724,0.64,2.6,0.64c2.028,0,3.985-1.102,4.992-3.018
	c1.436-2.756,0.373-6.152-2.381-7.595l-0.832-0.432c-1.347-0.705-2.846-0.8-4.198-0.4c-0.465-0.968-1.205-1.814-2.186-2.401
	C69.249,52.921,70.445,52.142,71.271,51.08z"/><text x="0" y="114.848" fill="#000000" font-size="5px" font-weight="bold" font-family="'Helvetica Neue', Helvetica, Arial-Unicode, Arial, Sans-serif">Created by Irit Barzily</text><text x="0" y="119.848" fill="#000000" font-size="5px" font-weight="bold" font-family="'Helvetica Neue', Helvetica, Arial-Unicode, Arial, Sans-serif">from the Noun Project</text></svg>