<?xml version="1.0" encoding="UTF-8" standalone="no"?>
<svg width="146px" height="153px" viewBox="0 0 146 153" version="1.1" xmlns="http://www.w3.org/2000/svg" xmlns:xlink="http://www.w3.org/1999/xlink">
    <!-- Generator: Sketch 3.7.2 (28276) - http://www.bohemiancoding.com/sketch -->
    <title>Group 2</title>
    <desc>Created with Sketch.</desc>
    <defs></defs>
    <g id="Page-1" stroke="none" stroke-width="1" fill="none" fill-rule="evenodd">
        <g id="Group-2" transform="translate(3.000000, 4.000000)">
            <path d="M70,127 C99.8233765,127 124,102.375661 124,72 C124,41.6243388 99.8233765,17 70,17 C40.1766235,17 16,41.6243388 16,72 C16,102.375661 40.1766235,127 70,127 Z M69.5918367,117 C93.6669434,117 113.183673,97.0766714 113.183673,72.5 C113.183673,47.9233286 93.6669434,28 69.5918367,28 C45.5167301,28 26,47.9233286 26,72.5 C26,97.0766714 45.5167301,117 69.5918367,117 Z" id="Combined-Shape" fill="#C1ADD6"></path>
            <path d="M70.5,0.5 L70.5,47.5" id="Line" stroke="#C1ADD6" stroke-width="9" stroke-linecap="square"></path>
            <path d="M70.5,97 L70.5,144" id="Line-Copy-3" stroke="#C1ADD6" stroke-width="9" stroke-linecap="square"></path>
            <path d="M53.5,72.3799388 L0.5,72.3799388" id="Line-Copy" stroke="#C1ADD6" stroke-width="7" stroke-linecap="square"></path>
            <path d="M139.5,72.3799388 L84.5,72.3799388" id="Line-Copy-2" stroke="#C1ADD6" stroke-width="7" stroke-linecap="square"></path>
        </g>
    </g>
</svg>